<svg width="49" height="49" viewBox="0 0 49 49" fill="none" xmlns="http://www.w3.org/2000/svg">
<rect width="49" height="49" fill="#2D9CDB"/>
<path d="M36.75 40.7159L32.7841 36.75L30.625 38.9091L36.75 45.0341L47.4688 34.3153L45.3097 32.1562L36.75 40.7159ZM22.9688 35.2188H26.0312V38.2812H22.9688V35.2188ZM13.7812 35.2188H16.8438V38.2812H13.7812V35.2188ZM32.1562 27.5625H35.2188V30.625H32.1562V27.5625ZM22.9688 27.5625H26.0312V30.625H22.9688V27.5625ZM13.7812 27.5625H16.8438V30.625H13.7812V27.5625ZM32.1562 19.9062H35.2188V22.9688H32.1562V19.9062ZM22.9688 19.9062H26.0312V22.9688H22.9688V19.9062ZM13.7812 19.9062H16.8438V22.9688H13.7812V19.9062ZM13.7812 10.7188H35.2188V15.3125H13.7812V10.7188Z" fill="white"/>
<path d="M26.0312 45.9375H9.19516C8.38115 45.9367 7.60071 45.613 7.02512 45.0374C6.44953 44.4618 6.12581 43.6814 6.125 42.8673V6.11888C6.12581 5.30852 6.44808 4.53159 7.02109 3.95859C7.59409 3.38558 8.37102 3.06331 9.18137 3.0625H39.8186C40.629 3.06331 41.4059 3.38558 41.9789 3.95859C42.5519 4.53159 42.8742 5.30852 42.875 6.11888V27.5625H39.8125V6.125H9.1875V42.875H26.0312V45.9375Z" fill="white"/>
</svg>
