<svg width="21" height="21" viewBox="0 0 21 21" fill="none" xmlns="http://www.w3.org/2000/svg">
<path d="M7.21875 3.93759V1.96753C7.21875 1.79348 7.28789 1.62656 7.41096 1.50349C7.53403 1.38042 7.70095 1.31128 7.875 1.31128H13.125C13.299 1.31128 13.466 1.38042 13.589 1.50349C13.7121 1.62656 13.7812 1.79348 13.7812 1.96753V3.93759H19.0312C19.2053 3.93759 19.3722 4.00673 19.4953 4.1298C19.6184 4.25287 19.6875 4.41979 19.6875 4.59384C19.6875 4.76789 19.6184 4.93481 19.4953 5.05788C19.3722 5.18095 19.2053 5.25009 19.0312 5.25009H1.96875C1.7947 5.25009 1.62778 5.18095 1.50471 5.05788C1.38164 4.93481 1.3125 4.76789 1.3125 4.59384C1.3125 4.41979 1.38164 4.25287 1.50471 4.1298C1.62778 4.00673 1.7947 3.93759 1.96875 3.93759H7.21875ZM8.53125 3.93759H12.4688V2.62509H8.53125V3.93759ZM3.9375 19.6876C3.76345 19.6876 3.59653 19.6185 3.47346 19.4954C3.35039 19.3723 3.28125 19.2054 3.28125 19.0313V5.25009H17.7188V19.0313C17.7188 19.2054 17.6496 19.3723 17.5265 19.4954C17.4035 19.6185 17.2365 19.6876 17.0625 19.6876H3.9375ZM8.53125 15.7501C8.7053 15.7501 8.87222 15.681 8.99529 15.5579C9.11836 15.4348 9.1875 15.2679 9.1875 15.0938V8.53134C9.1875 8.35729 9.11836 8.19037 8.99529 8.0673C8.87222 7.94423 8.7053 7.87509 8.53125 7.87509C8.3572 7.87509 8.19028 7.94423 8.06721 8.0673C7.94414 8.19037 7.875 8.35729 7.875 8.53134V15.0938C7.875 15.2679 7.94414 15.4348 8.06721 15.5579C8.19028 15.681 8.3572 15.7501 8.53125 15.7501ZM12.4688 15.7501C12.6428 15.7501 12.8097 15.681 12.9328 15.5579C13.0559 15.4348 13.125 15.2679 13.125 15.0938V8.53134C13.125 8.35729 13.0559 8.19037 12.9328 8.0673C12.8097 7.94423 12.6428 7.87509 12.4688 7.87509C12.2947 7.87509 12.1278 7.94423 12.0047 8.0673C11.8816 8.19037 11.8125 8.35729 11.8125 8.53134V15.0938C11.8125 15.2679 11.8816 15.4348 12.0047 15.5579C12.1278 15.681 12.2947 15.7501 12.4688 15.7501Z" fill="#ED3838"/>
</svg>
