<svg width="32" height="32" viewBox="0 0 32 32" fill="none" xmlns="http://www.w3.org/2000/svg">
<path fill-rule="evenodd" clip-rule="evenodd" d="M16 0C7.16364 0 0 7.16364 0 16C0 24.8364 7.16364 32 16 32C24.8364 32 32 24.8364 32 16C32 7.16364 24.8364 0 16 0ZM21.392 12.6647C21.657 12.3904 21.8036 12.023 21.8003 11.6416C21.7969 11.2602 21.644 10.8954 21.3743 10.6257C21.1046 10.356 20.7398 10.2031 20.3584 10.1997C19.977 10.1964 19.6096 10.343 19.3353 10.608L16 13.9433L12.6647 10.608C12.5306 10.4691 12.37 10.3583 12.1926 10.282C12.0151 10.2058 11.8243 10.1657 11.6311 10.164C11.438 10.1623 11.2465 10.1991 11.0677 10.2723C10.8889 10.3454 10.7265 10.4534 10.59 10.59C10.4534 10.7265 10.3454 10.8889 10.2723 11.0677C10.1991 11.2465 10.1623 11.438 10.164 11.6311C10.1657 11.8243 10.2058 12.0151 10.282 12.1926C10.3583 12.37 10.4691 12.5306 10.608 12.6647L13.9433 16L10.608 19.3353C10.4691 19.4695 10.3583 19.63 10.282 19.8074C10.2058 19.9849 10.1657 20.1757 10.164 20.3689C10.1623 20.562 10.1991 20.7535 10.2723 20.9323C10.3454 21.1111 10.4534 21.2735 10.59 21.41C10.7265 21.5466 10.8889 21.6546 11.0677 21.7277C11.2465 21.8009 11.438 21.8377 11.6311 21.836C11.8243 21.8343 12.0151 21.7942 12.1926 21.718C12.37 21.6417 12.5306 21.5309 12.6647 21.392L16 18.0567L19.3353 21.392C19.6096 21.657 19.977 21.8036 20.3584 21.8003C20.7398 21.7969 21.1046 21.644 21.3743 21.3743C21.644 21.1046 21.7969 20.7398 21.8003 20.3584C21.8036 19.977 21.657 19.6096 21.392 19.3353L18.0567 16L21.392 12.6647Z" fill="#F25858"/>
</svg>
