<svg width="27" height="24" viewBox="0 0 27 24" fill="none" xmlns="http://www.w3.org/2000/svg">
<path d="M27 18C27 19.6547 25.6547 21 24 21H9.62344C8.82656 21 8.0625 20.6859 7.5 20.1234L0.439312 13.0594C0.158016 12.7781 0 12.3984 0 12C0 11.6016 0.158062 11.2219 0.439312 10.9406L7.5 3.87891C8.0625 3.31594 8.82656 3 9.62344 3H24C25.6547 3 27 4.34297 27 6V18ZM12.7031 9.75469L14.9109 12L12.7031 14.2031C12.2672 14.6438 12.2672 15.3563 12.7031 15.7547C13.1438 16.2328 13.8563 16.2328 14.2547 15.7547L16.5 13.5891L18.7031 15.7547C19.1437 16.2328 19.8563 16.2328 20.2547 15.7547C20.7328 15.3563 20.7328 14.6438 20.2547 14.2031L18.0891 12L20.2547 9.75469C20.7328 9.35625 20.7328 8.64375 20.2547 8.20312C19.8563 7.76719 19.1437 7.76719 18.7031 8.20312L16.5 10.4109L14.2547 8.20312C13.8563 7.76719 13.1438 7.76719 12.7031 8.20312C12.2672 8.64375 12.2672 9.35625 12.7031 9.75469Z" fill="white"/>
</svg>
