<svg width="154" height="49" viewBox="0 0 154 49" fill="none" xmlns="http://www.w3.org/2000/svg">
<path d="M36.75 40.7159L32.7841 36.75L30.625 38.9091L36.75 45.0341L47.4688 34.3153L45.3097 32.1562L36.75 40.7159ZM22.9688 35.2188H26.0312V38.2812H22.9688V35.2188ZM13.7812 35.2188H16.8438V38.2812H13.7812V35.2188ZM32.1562 27.5625H35.2188V30.625H32.1562V27.5625ZM22.9688 27.5625H26.0312V30.625H22.9688V27.5625ZM13.7812 27.5625H16.8438V30.625H13.7812V27.5625ZM32.1562 19.9062H35.2188V22.9688H32.1562V19.9062ZM22.9688 19.9062H26.0312V22.9688H22.9688V19.9062ZM13.7812 19.9062H16.8438V22.9688H13.7812V19.9062ZM13.7812 10.7188H35.2188V15.3125H13.7812V10.7188Z" fill="white"/>
<path d="M26.0312 45.9375H9.19516C8.38115 45.9367 7.60071 45.613 7.02512 45.0374C6.44953 44.4618 6.12581 43.6814 6.125 42.8673V6.11888C6.12581 5.30852 6.44808 4.53159 7.02109 3.95859C7.59409 3.38558 8.37102 3.06331 9.18137 3.0625H39.8186C40.629 3.06331 41.4059 3.38558 41.9789 3.95859C42.5519 4.53159 42.8742 5.30852 42.875 6.11888V27.5625H39.8125V6.125H9.1875V42.875H26.0312V45.9375Z" fill="white"/>
<path d="M54.992 20.2H62.624C64.448 20.2 66.056 20.552 67.448 21.256C68.856 21.944 69.944 22.92 70.712 24.184C71.496 25.448 71.888 26.92 71.888 28.6C71.888 30.28 71.496 31.752 70.712 33.016C69.944 34.28 68.856 35.264 67.448 35.968C66.056 36.656 64.448 37 62.624 37H54.992V20.2ZM62.432 33.808C64.112 33.808 65.448 33.344 66.44 32.416C67.448 31.472 67.952 30.2 67.952 28.6C67.952 27 67.448 25.736 66.44 24.808C65.448 23.864 64.112 23.392 62.432 23.392H58.88V33.808H62.432ZM74.5561 24.088H78.3001V37H74.5561V24.088ZM76.4281 22.288C75.7401 22.288 75.1801 22.088 74.7481 21.688C74.3161 21.288 74.1001 20.792 74.1001 20.2C74.1001 19.608 74.3161 19.112 74.7481 18.712C75.1801 18.312 75.7401 18.112 76.4281 18.112C77.1161 18.112 77.6761 18.304 78.1081 18.688C78.5401 19.072 78.7561 19.552 78.7561 20.128C78.7561 20.752 78.5401 21.272 78.1081 21.688C77.6761 22.088 77.1161 22.288 76.4281 22.288ZM87.9909 29.104L84.5589 32.584V37H82.7829V20.2H84.5589V30.352L94.4229 20.2H96.4629L89.1909 27.808L96.9669 37H94.8549L87.9909 29.104ZM109.725 32.512H100.365L98.3491 37H96.5011L104.181 20.2H105.933L113.613 37H111.741L109.725 32.512ZM109.077 31.072L105.045 22.048L101.013 31.072H109.077ZM121.024 37.144C119.776 37.144 118.576 36.944 117.424 36.544C116.288 36.144 115.408 35.616 114.784 34.96L115.48 33.592C116.088 34.2 116.896 34.696 117.904 35.08C118.912 35.448 119.952 35.632 121.024 35.632C122.528 35.632 123.656 35.36 124.408 34.816C125.16 34.256 125.536 33.536 125.536 32.656C125.536 31.984 125.328 31.448 124.912 31.048C124.512 30.648 124.016 30.344 123.424 30.136C122.832 29.912 122.008 29.672 120.952 29.416C119.688 29.096 118.68 28.792 117.928 28.504C117.176 28.2 116.528 27.744 115.984 27.136C115.456 26.528 115.192 25.704 115.192 24.664C115.192 23.816 115.416 23.048 115.864 22.36C116.312 21.656 117 21.096 117.928 20.68C118.856 20.264 120.008 20.056 121.384 20.056C122.344 20.056 123.28 20.192 124.192 20.464C125.12 20.72 125.92 21.08 126.592 21.544L125.992 22.96C125.288 22.496 124.536 22.152 123.736 21.928C122.936 21.688 122.152 21.568 121.384 21.568C119.912 21.568 118.8 21.856 118.048 22.432C117.312 22.992 116.944 23.72 116.944 24.616C116.944 25.288 117.144 25.832 117.544 26.248C117.96 26.648 118.472 26.96 119.08 27.184C119.704 27.392 120.536 27.624 121.576 27.88C122.808 28.184 123.8 28.488 124.552 28.792C125.32 29.08 125.968 29.528 126.496 30.136C127.024 30.728 127.288 31.536 127.288 32.56C127.288 33.408 127.056 34.184 126.592 34.888C126.144 35.576 125.448 36.128 124.504 36.544C123.56 36.944 122.4 37.144 121.024 37.144ZM131.158 20.2H132.934V37H131.158V20.2ZM149.872 37L146.032 31.6C145.6 31.648 145.152 31.672 144.688 31.672H140.176V37H138.4V20.2H144.688C146.832 20.2 148.512 20.712 149.728 21.736C150.944 22.76 151.552 24.168 151.552 25.96C151.552 27.272 151.216 28.384 150.544 29.296C149.888 30.192 148.944 30.84 147.712 31.24L151.816 37H149.872ZM144.64 30.16C146.304 30.16 147.576 29.792 148.456 29.056C149.336 28.32 149.776 27.288 149.776 25.96C149.776 24.6 149.336 23.56 148.456 22.84C147.576 22.104 146.304 21.736 144.64 21.736H140.176V30.16H144.64Z" fill="white"/>
</svg>
